<?xml version="1.0" encoding="UTF-8"?>
<svg xmlns="http://www.w3.org/2000/svg" width="100px" height="100px"
     viewBox="0 0 100 100" version="1.1">
    <g id="surface1">
        <path style=" stroke:none;fill-rule:evenodd;fill:#fff;fill-opacity:1;"
              d="M 53.332031 18.332031 C 53.332031 16.492188 51.839844 15 50 15 C 48.160156 15 46.667969 16.492188 46.667969 18.332031 L 46.667969 46.667969 L 18.332031 46.667969 C 16.492188 46.667969 15 48.160156 15 50 C 15 51.839844 16.492188 53.332031 18.332031 53.332031 L 46.667969 53.332031 L 46.667969 81.667969 C 46.667969 83.507812 48.160156 85 50 85 C 51.839844 85 53.332031 83.507812 53.332031 81.667969 L 53.332031 53.332031 L 81.667969 53.332031 C 83.507812 53.332031 85 51.839844 85 50 C 85 48.160156 83.507812 46.667969 81.667969 46.667969 L 53.332031 46.667969 Z M 53.332031 18.332031 "/>
    </g>
</svg>
